<svg width="400" height="100" viewBox="0 0 400 100" fill="none" xmlns="http://www.w3.org/2000/svg">
  <defs>
    <linearGradient id="joyGradient" x1="0%" y1="0%" x2="100%" y2="100%">
      <stop offset="0%" style="stop-color:#10b981" />
      <stop offset="100%" style="stop-color:#059669" />
    </linearGradient>
    <linearGradient id="sadnessGradient" x1="0%" y1="0%" x2="100%" y2="100%">
      <stop offset="0%" style="stop-color:#3b82f6" />
      <stop offset="100%" style="stop-color:#1d4ed8" />
    </linearGradient>
    <linearGradient id="angerGradient" x1="0%" y1="0%" x2="100%" y2="100%">
      <stop offset="0%" style="stop-color:#ef4444" />
      <stop offset="100%" style="stop-color:#dc2626" />
    </linearGradient>
    <linearGradient id="surpriseGradient" x1="0%" y1="0%" x2="100%" y2="100%">
      <stop offset="0%" style="stop-color:#f59e0b" />
      <stop offset="100%" style="stop-color:#d97706" />
    </linearGradient>
    <linearGradient id="fearGradient" x1="0%" y1="0%" x2="100%" y2="100%">
      <stop offset="0%" style="stop-color:#8b5cf6" />
      <stop offset="100%" style="stop-color:#7c3aed" />
    </linearGradient>
    <linearGradient id="neutralGradient" x1="0%" y1="0%" x2="100%" y2="100%">
      <stop offset="0%" style="stop-color:#6b7280" />
      <stop offset="100%" style="stop-color:#4b5563" />
    </linearGradient>
  </defs>
  
  <!-- Joy -->
  <circle cx="25" cy="25" r="20" fill="url(#joyGradient)"/>
  <circle cx="20" cy="20" r="3" fill="white"/>
  <circle cx="30" cy="20" r="3" fill="white"/>
  <path d="M20 35 Q25 40 30 35" stroke="white" stroke-width="3" fill="none" stroke-linecap="round"/>
  
  <!-- Sadness -->
  <circle cx="75" cy="25" r="20" fill="url(#sadnessGradient)"/>
  <circle cx="70" cy="20" r="3" fill="white"/>
  <circle cx="80" cy="20" r="3" fill="white"/>
  <path d="M70 35 Q75 30 80 35" stroke="white" stroke-width="3" fill="none" stroke-linecap="round"/>
  
  <!-- Anger -->
  <circle cx="125" cy="25" r="20" fill="url(#angerGradient)"/>
  <circle cx="120" cy="20" r="3" fill="white"/>
  <circle cx="130" cy="20" r="3" fill="white"/>
  <path d="M120 35 Q125 40 130 35" stroke="white" stroke-width="3" fill="none" stroke-linecap="round"/>
  <path d="M115 15 L125 25 M125 25 L135 15" stroke="white" stroke-width="2"/>
  
  <!-- Surprise -->
  <circle cx="175" cy="25" r="20" fill="url(#surpriseGradient)"/>
  <circle cx="175" cy="20" r="3" fill="white"/>
  <circle cx="175" cy="35" r="6" fill="white"/>
  
  <!-- Fear -->
  <circle cx="225" cy="25" r="20" fill="url(#fearGradient)"/>
  <circle cx="220" cy="20" r="3" fill="white"/>
  <circle cx="230" cy="20" r="3" fill="white"/>
  <path d="M220 35 Q225 40 230 35" stroke="white" stroke-width="3" fill="none" stroke-linecap="round"/>
  <path d="M215 15 L225 25 M225 25 L235 15" stroke="white" stroke-width="2"/>
  
  <!-- Neutral -->
  <circle cx="275" cy="25" r="20" fill="url(#neutralGradient)"/>
  <circle cx="270" cy="20" r="3" fill="white"/>
  <circle cx="280" cy="20" r="3" fill="white"/>
  <path d="M270 35 L280 35" stroke="white" stroke-width="3" stroke-linecap="round"/>
  
  <!-- Labels -->
  <text x="25" y="70" text-anchor="middle" fill="#374151" font-family="Inter, sans-serif" font-size="12" font-weight="500">Alegría</text>
  <text x="75" y="70" text-anchor="middle" fill="#374151" font-family="Inter, sans-serif" font-size="12" font-weight="500">Tristeza</text>
  <text x="125" y="70" text-anchor="middle" fill="#374151" font-family="Inter, sans-serif" font-size="12" font-weight="500">Enojo</text>
  <text x="175" y="70" text-anchor="middle" fill="#374151" font-family="Inter, sans-serif" font-size="12" font-weight="500">Sorpresa</text>
  <text x="225" y="70" text-anchor="middle" fill="#374151" font-family="Inter, sans-serif" font-size="12" font-weight="500">Miedo</text>
  <text x="275" y="70" text-anchor="middle" fill="#374151" font-family="Inter, sans-serif" font-size="12" font-weight="500">Neutral</text>
</svg> 