<svg width="32" height="32" viewBox="0 0 32 32" fill="none" xmlns="http://www.w3.org/2000/svg">
<rect width="32" height="32" rx="8" fill="url(#gradient0)"/>
<path d="M16 8C19.3137 8 22 10.6863 22 14C22 17.3137 19.3137 20 16 20C12.6863 20 10 17.3137 10 14C10 10.6863 12.6863 8 16 8Z" fill="white"/>
<path d="M16 12C17.1046 12 18 12.8954 18 14C18 15.1046 17.1046 16 16 16C14.8954 16 14 15.1046 14 14C14 12.8954 14.8954 12 16 12Z" fill="#667eea"/>
<path d="M16 22C18.2091 22 20 20.2091 20 18C18 18 16 18 16 18C16 18 14 18 12 18C12 20.2091 13.7909 22 16 22Z" fill="white"/>
<defs>
<linearGradient id="gradient0" x1="0" y1="0" x2="32" y2="32" gradientUnits="userSpaceOnUse">
<stop stop-color="#667eea"/>
<stop offset="1" stop-color="#764ba2"/>
</linearGradient>
</defs>
</svg> 